name rise42.5664peak47.7979fall81.9185.mot
datacolumns 19
datarows 26
range 1.49499600000000 1.53665700000000
endheader
time	ground_force1_vx	ground_force1_vy	ground_force1_vz	ground_force1_px	ground_force1_py	ground_force1_pz	ground_force2_vx	ground_force2_vy	ground_force2_vz	ground_force2_px	ground_force2_py	ground_force2_pz	ground_torque1_x	ground_torque1_y	ground_torque1_z	ground_torque2_x	ground_torque2_y	ground_torque2_z	
1.49499600000000	-6.00848400000000	46.31981300000000	-6.56816100000000	0.25303800000000	0.00000000000000	0.08573400000000	-44.29670000000000	791.86726299999998	-55.26621800000000	0.05525900000000	0.00000000000000	-0.08615500000000	0.00000000000000	-3.35852700000000	0.00000000000000	0.00000000000000	-12.00217400000000	0.00000000000000	
1.49666500000000	-6.48043900000000	53.12200100000000	-7.27559100000000	0.25641000000000	0.00000000000000	0.08636500000000	-44.90525800000000	789.84800199999995	-54.94100600000000	0.05455000000000	0.00000000000000	-0.08604300000000	0.00000000000000	-3.75125500000000	0.00000000000000	0.00000000000000	-11.98147200000000	0.00000000000000	
1.49832300000000	-6.84129900000000	59.89683600000000	-7.91118900000000	0.25950500000000	0.00000000000000	0.08694700000000	-45.53622400000000	787.70647699999995	-54.59149800000000	0.05383900000000	0.00000000000000	-0.08592700000000	0.00000000000000	-4.11341600000000	0.00000000000000	0.00000000000000	-11.96551400000000	0.00000000000000	
1.49998900000000	-7.08061300000000	66.57603400000001	-8.46402000000000	0.26236600000000	0.00000000000000	0.08748400000000	-46.18915200000000	785.44019600000001	-54.21765700000000	0.05312400000000	0.00000000000000	-0.08580800000000	0.00000000000000	-4.43929400000000	0.00000000000000	0.00000000000000	-11.95430800000000	0.00000000000000	
1.50165900000000	-7.19352200000000	73.11547400000001	-8.92808600000000	0.26502900000000	0.00000000000000	0.08798300000000	-46.86349400000000	783.04665299999999	-53.81948200000000	0.05240800000000	0.00000000000000	-0.08568500000000	0.00000000000000	-4.72570900000000	0.00000000000000	0.00000000000000	-11.94783800000000	0.00000000000000	
1.50332800000000	-7.18031400000000	79.49493200000001	-9.30203200000000	0.26752300000000	0.00000000000000	0.08844900000000	-47.55859400000000	780.52333699999997	-53.39700800000000	0.05169000000000	0.00000000000000	-0.08555900000000	0.00000000000000	-4.97189100000000	0.00000000000000	0.00000000000000	-11.94606800000000	0.00000000000000	
1.50499100000000	-7.04562500000000	85.71588900000000	-9.58851800000000	0.26987000000000	0.00000000000000	0.08888600000000	-48.27369200000000	777.86774000000003	-52.95030600000000	0.05097200000000	0.00000000000000	-0.08542900000000	0.00000000000000	-5.17917200000000	0.00000000000000	0.00000000000000	-11.94894200000000	0.00000000000000	
1.50665800000000	-6.79743800000000	91.79794200000001	-9.79338100000000	0.27208900000000	0.00000000000000	0.08929700000000	-49.00791900000000	775.07736000000000	-52.47948700000000	0.05025300000000	0.00000000000000	-0.08529500000000	0.00000000000000	-5.35056100000000	0.00000000000000	0.00000000000000	-11.95637900000000	0.00000000000000	
1.50832300000000	-6.44597600000000	97.77435199999999	-9.92467000000000	0.27419600000000	0.00000000000000	0.08968400000000	-49.76030300000000	772.14971200000002	-51.98469700000000	0.04953400000000	0.00000000000000	-0.08515800000000	0.00000000000000	-5.49025300000000	0.00000000000000	0.00000000000000	-11.96827800000000	0.00000000000000	
1.50999500000000	-6.00262300000000	103.68725300000000	-9.99168500000000	0.27620300000000	0.00000000000000	0.09005000000000	-50.52976600000000	769.08233299999995	-51.46612100000000	0.04881600000000	0.00000000000000	-0.08501700000000	0.00000000000000	-5.60312300000000	0.00000000000000	0.00000000000000	-11.98451600000000	0.00000000000000	
1.51167200000000	-5.47893000000000	109.58296900000001	-10.00407200000000	0.27812100000000	0.00000000000000	0.09039800000000	-51.31512600000000	765.87279300000000	-50.92398500000000	0.04810000000000	0.00000000000000	-0.08487200000000	0.00000000000000	-5.69424700000000	0.00000000000000	0.00000000000000	-12.00494800000000	0.00000000000000	
1.51333100000000	-4.88579000000000	115.50779500000000	-9.97105100000000	0.27995800000000	0.00000000000000	0.09072800000000	-52.11509900000000	762.51870299999996	-50.35855000000000	0.04738500000000	0.00000000000000	-0.08472400000000	0.00000000000000	-5.76849400000000	0.00000000000000	0.00000000000000	-12.02940900000000	0.00000000000000	
1.51499500000000	-4.23281700000000	121.50449399999999	-9.90081100000000	0.28172100000000	0.00000000000000	0.09104400000000	-52.92829900000000	759.01772200000005	-49.77012200000000	0.04667300000000	0.00000000000000	-0.08457100000000	0.00000000000000	-5.83019700000000	0.00000000000000	0.00000000000000	-12.05771000000000	0.00000000000000	
1.51666100000000	-3.52792300000000	127.60965700000000	-9.80008900000000	0.28341500000000	0.00000000000000	0.09134500000000	-53.75324300000000	755.36756900000000	-49.15904000000000	0.04596400000000	0.00000000000000	-0.08441500000000	0.00000000000000	-5.88292000000000	0.00000000000000	0.00000000000000	-12.08964300000000	0.00000000000000	
1.51833000000000	-2.77711900000000	133.85196800000000	-9.67393400000000	0.28504600000000	0.00000000000000	0.09163400000000	-54.58835100000000	751.56602799999996	-48.52568900000000	0.04525800000000	0.00000000000000	-0.08425400000000	0.00000000000000	-5.92932800000000	0.00000000000000	0.00000000000000	-12.12498000000000	0.00000000000000	
1.51999100000000	-1.98448900000000	140.25135700000001	-9.52564200000000	0.28661600000000	0.00000000000000	0.09191100000000	-55.43194700000000	747.61096299999997	-47.87048900000000	0.04455700000000	0.00000000000000	-0.08409000000000	0.00000000000000	-5.97113600000000	0.00000000000000	0.00000000000000	-12.16347300000000	0.00000000000000	
1.52165800000000	-1.15232900000000	146.81893099999999	-9.35683400000000	0.28812800000000	0.00000000000000	0.09217800000000	-56.28226600000000	743.50032299999998	-47.19390200000000	0.04385900000000	0.00000000000000	-0.08392200000000	0.00000000000000	-6.00915100000000	0.00000000000000	0.00000000000000	-12.20485300000000	0.00000000000000	
1.52332800000000	-0.28138900000000	153.55755099999999	-9.16764400000000	0.28958600000000	0.00000000000000	0.09243400000000	-57.13745600000000	739.23215500000003	-46.49642900000000	0.04316700000000	0.00000000000000	-0.08375000000000	0.00000000000000	-6.04336100000000	0.00000000000000	0.00000000000000	-12.24883400000000	0.00000000000000	
1.52499800000000	0.62879300000000	160.46289999999999	-8.95699000000000	0.29098900000000	0.00000000000000	0.09268200000000	-57.99557800000000	734.80461000000003	-45.77861000000000	0.04247900000000	0.00000000000000	-0.08357500000000	0.00000000000000	-6.07307600000000	0.00000000000000	0.00000000000000	-12.29511300000000	0.00000000000000	
1.52666000000000	1.57953300000000	167.52485500000000	-8.72288300000000	0.29233900000000	0.00000000000000	0.09292200000000	-58.85461600000000	730.21595800000000	-45.04102600000000	0.04179700000000	0.00000000000000	-0.08339500000000	0.00000000000000	-6.09709100000000	0.00000000000000	0.00000000000000	-12.34336900000000	0.00000000000000	
1.52832900000000	2.57262900000000	174.72902300000001	-8.46275100000000	0.29363700000000	0.00000000000000	0.09315400000000	-59.71247500000000	725.46459400000003	-44.28429300000000	0.04112000000000	0.00000000000000	-0.08321200000000	0.00000000000000	-6.11385900000000	0.00000000000000	0.00000000000000	-12.39326400000000	0.00000000000000	
1.52999200000000	3.61002200000000	182.05828399999999	-8.17375000000000	0.29488300000000	0.00000000000000	0.09337900000000	-60.56698900000000	720.54905299999996	-43.50906900000000	0.04044800000000	0.00000000000000	-0.08302500000000	0.00000000000000	-6.12165800000000	0.00000000000000	0.00000000000000	-12.44444700000000	0.00000000000000	
1.53166200000000	4.69349300000000	189.49423800000000	-7.85303700000000	0.29607600000000	0.00000000000000	0.09359800000000	-61.41592700000000	715.46801800000003	-42.71604500000000	0.03978300000000	0.00000000000000	-0.08283400000000	0.00000000000000	-6.11874000000000	0.00000000000000	0.00000000000000	-12.49655200000000	0.00000000000000	
1.53332600000000	5.82442900000000	197.01845200000000	-7.49799900000000	0.29721800000000	0.00000000000000	0.09381100000000	-62.25699400000000	710.22032899999999	-41.90595000000000	0.03912300000000	0.00000000000000	-0.08263900000000	0.00000000000000	-6.10345800000000	0.00000000000000	0.00000000000000	-12.54920100000000	0.00000000000000	
1.53499400000000	7.00364200000000	204.61347300000000	-7.10642800000000	0.29830600000000	0.00000000000000	0.09401900000000	-63.08783800000000	704.80500199999994	-41.07954800000000	0.03846800000000	0.00000000000000	-0.08244100000000	0.00000000000000	-6.07436000000000	0.00000000000000	0.00000000000000	-12.60200300000000	0.00000000000000	
1.53665700000000	8.23126700000000	212.26356999999999	-6.67663100000000	0.29934100000000	0.00000000000000	0.09422100000000	-63.90605600000000	699.22123399999998	-40.23763800000000	0.03781900000000	0.00000000000000	-0.08223900000000	0.00000000000000	-6.03025700000000	0.00000000000000	0.00000000000000	-12.65455800000000	0.00000000000000	
